<svg width="17.864mm" height="16.775mm" version="1.1" viewBox="0 0 17.864 16.775" xmlns="http://www.w3.org/2000/svg" xmlns:xlink="http://www.w3.org/1999/xlink">
 <defs>
  <linearGradient id="b" x1="54.698" x2="57.319" y1="158.75" y2="163.16" gradientTransform="matrix(15.772 9.3937 -9.3937 15.772 49.836 -2887.2)" gradientUnits="userSpaceOnUse">
   <stop offset="0"/>
   <stop stop-color="#a00" offset="1"/>
  </linearGradient>
  <linearGradient id="a" x1="-741.43" x2="-438.9" y1="75.723" y2="94.767" gradientUnits="userSpaceOnUse">
   <stop stop-color="#e54c18" offset="0"/>
   <stop stop-color="#fec350" offset="1"/>
  </linearGradient>
 </defs>
 <g transform="translate(-214.84 -74.975)">
  <g transform="matrix(.054474 0 0 .054474 255.71 79.521)" stroke-width="4.857">
   <g stroke-width="4.857">
    <path transform="translate(2.4094e-5)" d="m-536.1 62.365 113.69 159.27h-73.516l-90.509-125.8 37.749-49.289"/>
    <path transform="translate(2.4094e-5)" d="m-569.04-25.348c-8.851 0.0305-18.315 0.68168-26.828 1.4988 15.166 19.78 16.917 23.249 31.4 42.271-2.3231-5.7525-14-20.98-8.2247-29.607 5.7172-8.5397 17.987-7.5472 18.925-7.5132 1.6254 0.0589 10.846 1.2833 12.143 1.717l3.1685-5.1606c-1.0154-0.44452-11.882-3.2709-30.584-3.2064zm74.079 17-3.4436 5.2555c2.9512 1.7198 5.1977 3.2145 7.9686 5.2175 5.7733 4.1735 11.03 8.863 15.747 13.954 18.868 20.366 29.085 47.133 29.085 72.723 0 25.59-9.8774 52.354-28.573 72.723-18.696 20.368-46.21 34.341-81.488 34.341-42.329 0-80.644-11.987-108.38-31.362-27.738-19.375-44.899-46.138-44.899-75.701 0-29.563 17.161-56.329 44.899-75.701 3.4672-2.4216 5.7278-3.9378 7.665-5.0562 0.11855-0.068443 0.44335-0.24516 0.57867-0.32254l-9.9133-14.6c-0.12875 0.057454-0.23043 0.093412-0.36049 0.15178-9.6464 4.3291-22.969 11.209-31.172 16.658-32.813 21.797-53.105 51.907-53.105 85.169 0 33.261 20.292 63.372 53.105 85.169 32.813 21.797 78.146 35.28 128.22 35.28 44.379 0 78.908-14.843 102.34-37.319 23.431-22.477 35.764-52.588 35.764-83.129 0-30.541-12.333-60.652-35.764-83.129-5.8577-5.6192-12.412-10.759-19.637-15.311-3.4892-2.1984-4.9836-3.1742-8.6326-5.0088z" fill="url(#a)" stop-color="#000000" style="-inkscape-stroke:none;font-variation-settings:normal"/>
    <path d="m-602.28 76.273-114.38-159.71 73.514 0.06108 91.138 125.58-37.628 49.517"/>
   </g>
   <path d="m-571.35 75.611c-7.6235-4.5406-17.411-2.06-21.952 5.5636l-14.747 24.761c-0.87643 1.4715-1.491 3.0227-1.8576 4.6019 4.6505 1.5669 9.4378 3.8434 14.352 6.7703 4.4688 2.6616 8.5336 5.5442 12.091 8.6375 1.1207-1.0311 2.1167-2.2376 2.9378-3.6163l14.747-24.761c4.5406-7.6236 2.0518-17.416-5.5717-21.957z" stroke="#000" stroke-width="13.125"/>
   <path d="m-482.37-74.503c-5.8892-3.5076-13.459-1.5961-16.966 4.2931l-86.189 144.71c4.4696-1.7978 9.6989-1.5548 14.177 1.1125 4.4784 2.6673 7.1803 7.1483 7.7307 11.936l86.189-144.71c3.5076-5.8892 1.5913-13.45-4.2979-16.958z" stroke="#000" stroke-width="13.125"/>
   <path d="m-575.63 180.39c-27.786 47.305-103.83 44.521-104.97 43.844-0.68828-0.40994 5.6181-8.9807 9.1734-34.227 4.6436-32.974 7.3148-46.948 14.413-58.866 16.291-27.353 37.388-28.169 61.46-13.832 24.072 14.337 36.554 34.766 19.923 63.08z" fill="url(#b)"/>
  </g>
 </g>
</svg>
